<svg id="visual" viewBox="0 0 540 960" width="540" height="960" xmlns="http://www.w3.org/2000/svg" xmlns:xlink="http://www.w3.org/1999/xlink" version="1.1"><rect x="0" y="0" width="540" height="960" fill="#345BAC"></rect><path d="M0 658L11.3 663C22.7 668 45.3 678 67.8 681.2C90.3 684.3 112.7 680.7 135.2 679.5C157.7 678.3 180.3 679.7 202.8 677C225.3 674.3 247.7 667.7 270.2 672.3C292.7 677 315.3 693 337.8 702C360.3 711 382.7 713 405.2 715C427.7 717 450.3 719 472.8 713.5C495.3 708 517.7 695 528.8 688.5L540 682L540 961L528.8 961C517.7 961 495.3 961 472.8 961C450.3 961 427.7 961 405.2 961C382.7 961 360.3 961 337.8 961C315.3 961 292.7 961 270.2 961C247.7 961 225.3 961 202.8 961C180.3 961 157.7 961 135.2 961C112.7 961 90.3 961 67.8 961C45.3 961 22.7 961 11.3 961L0 961Z" fill="#0c367e"></path><path d="M0 730L11.3 728.7C22.7 727.3 45.3 724.7 67.8 723.5C90.3 722.3 112.7 722.7 135.2 727.8C157.7 733 180.3 743 202.8 740.5C225.3 738 247.7 723 270.2 713.7C292.7 704.3 315.3 700.7 337.8 701.3C360.3 702 382.7 707 405.2 710.5C427.7 714 450.3 716 472.8 715C495.3 714 517.7 710 528.8 708L540 706L540 961L528.8 961C517.7 961 495.3 961 472.8 961C450.3 961 427.7 961 405.2 961C382.7 961 360.3 961 337.8 961C315.3 961 292.7 961 270.2 961C247.7 961 225.3 961 202.8 961C180.3 961 157.7 961 135.2 961C112.7 961 90.3 961 67.8 961C45.3 961 22.7 961 11.3 961L0 961Z" fill="#072d6d"></path><path d="M0 757L11.3 755.8C22.7 754.7 45.3 752.3 67.8 749.3C90.3 746.3 112.7 742.7 135.2 746.3C157.7 750 180.3 761 202.8 765.3C225.3 769.7 247.7 767.3 270.2 769C292.7 770.7 315.3 776.3 337.8 776.8C360.3 777.3 382.7 772.7 405.2 767.3C427.7 762 450.3 756 472.8 758.7C495.3 761.3 517.7 772.7 528.8 778.3L540 784L540 961L528.8 961C517.7 961 495.3 961 472.8 961C450.3 961 427.7 961 405.2 961C382.7 961 360.3 961 337.8 961C315.3 961 292.7 961 270.2 961C247.7 961 225.3 961 202.8 961C180.3 961 157.7 961 135.2 961C112.7 961 90.3 961 67.8 961C45.3 961 22.7 961 11.3 961L0 961Z" fill="#03255d"></path><path d="M0 781L11.3 786.3C22.7 791.7 45.3 802.3 67.8 805C90.3 807.7 112.7 802.3 135.2 797.8C157.7 793.3 180.3 789.7 202.8 788.8C225.3 788 247.7 790 270.2 792.7C292.7 795.3 315.3 798.7 337.8 793.8C360.3 789 382.7 776 405.2 771.8C427.7 767.7 450.3 772.3 472.8 773.7C495.3 775 517.7 773 528.8 772L540 771L540 961L528.8 961C517.7 961 495.3 961 472.8 961C450.3 961 427.7 961 405.2 961C382.7 961 360.3 961 337.8 961C315.3 961 292.7 961 270.2 961C247.7 961 225.3 961 202.8 961C180.3 961 157.7 961 135.2 961C112.7 961 90.3 961 67.8 961C45.3 961 22.7 961 11.3 961L0 961Z" fill="#011d4d"></path><path d="M0 840L11.3 839C22.7 838 45.3 836 67.8 836C90.3 836 112.7 838 135.2 838.2C157.7 838.3 180.3 836.7 202.8 831.7C225.3 826.7 247.7 818.3 270.2 819.3C292.7 820.3 315.3 830.7 337.8 832C360.3 833.3 382.7 825.7 405.2 823.5C427.7 821.3 450.3 824.7 472.8 822.7C495.3 820.7 517.7 813.3 528.8 809.7L540 806L540 961L528.8 961C517.7 961 495.3 961 472.8 961C450.3 961 427.7 961 405.2 961C382.7 961 360.3 961 337.8 961C315.3 961 292.7 961 270.2 961C247.7 961 225.3 961 202.8 961C180.3 961 157.7 961 135.2 961C112.7 961 90.3 961 67.8 961C45.3 961 22.7 961 11.3 961L0 961Z" fill="#001943"></path><path d="M0 857L11.3 857.2C22.7 857.3 45.3 857.7 67.8 856C90.3 854.3 112.7 850.7 135.2 848.2C157.7 845.7 180.3 844.3 202.8 844.5C225.3 844.7 247.7 846.3 270.2 847C292.7 847.7 315.3 847.3 337.8 845.8C360.3 844.3 382.7 841.7 405.2 844.3C427.7 847 450.3 855 472.8 858C495.3 861 517.7 859 528.8 858L540 857L540 961L528.8 961C517.7 961 495.3 961 472.8 961C450.3 961 427.7 961 405.2 961C382.7 961 360.3 961 337.8 961C315.3 961 292.7 961 270.2 961C247.7 961 225.3 961 202.8 961C180.3 961 157.7 961 135.2 961C112.7 961 90.3 961 67.8 961C45.3 961 22.7 961 11.3 961L0 961Z" fill="#00173e"></path><path d="M0 894L11.3 891.5C22.7 889 45.3 884 67.8 884.7C90.3 885.3 112.7 891.7 135.2 890.5C157.7 889.3 180.3 880.7 202.8 876.5C225.3 872.3 247.7 872.7 270.2 873C292.7 873.3 315.3 873.7 337.8 875.8C360.3 878 382.7 882 405.2 886.2C427.7 890.3 450.3 894.7 472.8 892.5C495.3 890.3 517.7 881.7 528.8 877.3L540 873L540 961L528.8 961C517.7 961 495.3 961 472.8 961C450.3 961 427.7 961 405.2 961C382.7 961 360.3 961 337.8 961C315.3 961 292.7 961 270.2 961C247.7 961 225.3 961 202.8 961C180.3 961 157.7 961 135.2 961C112.7 961 90.3 961 67.8 961C45.3 961 22.7 961 11.3 961L0 961Z" fill="#001639"></path><path d="M0 926L11.3 926.2C22.7 926.3 45.3 926.7 67.8 924.3C90.3 922 112.7 917 135.2 916.7C157.7 916.3 180.3 920.7 202.8 922.8C225.3 925 247.7 925 270.2 925.3C292.7 925.7 315.3 926.3 337.8 926.3C360.3 926.3 382.7 925.7 405.2 923.7C427.7 921.7 450.3 918.3 472.8 916.8C495.3 915.3 517.7 915.7 528.8 915.8L540 916L540 961L528.8 961C517.7 961 495.3 961 472.8 961C450.3 961 427.7 961 405.2 961C382.7 961 360.3 961 337.8 961C315.3 961 292.7 961 270.2 961C247.7 961 225.3 961 202.8 961C180.3 961 157.7 961 135.2 961C112.7 961 90.3 961 67.8 961C45.3 961 22.7 961 11.3 961L0 961Z" fill="#011534"></path></svg>